<svg id="Layer_1" data-name="Layer 1" xmlns="http://www.w3.org/2000/svg" viewBox="0 0 438.23 502.66"><defs><style>.cls-1,.cls-5{fill:#80b05a;}.cls-1,.cls-2{fill-rule:evenodd;}.cls-2,.cls-4{fill:#005725;}.cls-3,.cls-6,.cls-7{fill:#fff;}.cls-6{stroke:#80b05a;}.cls-6,.cls-7{stroke-linecap:round;stroke-miterlimit:10;stroke-width:8px;}.cls-7{stroke:#005725;}</style></defs><title>SurreyCodeCamp Logo New</title><polygon class="cls-1" points="6.4 125.28 219.57 251.69 6.85 372.35 6.4 125.28"/><polygon class="cls-2" points="219.08 500.55 218.29 254.08 5.2 374.09 219.08 500.55"/><polygon class="cls-2" points="432.19 131.41 219.22 251.58 433.17 378.54 432.19 131.41"/><polygon class="cls-1" points="433.54 128.96 220.55 249.25 219.32 2.1 433.54 128.96"/><polygon class="cls-2" points="220.23 497.96 219.32 251.5 433.1 378.46 220.23 497.96"/><polygon class="cls-1" points="6.32 125.34 219.41 251.85 218.95 4.69 6.32 125.34"/><path class="cls-3" d="M273.1,322.1q0-22.05-11.94-33.79t-43.1-22.86q-31.16-11.12-47.65-23.37t-24.68-27.92q-8.19-15.68-8.19-35.91,0-35,23.37-57.67t61.21-22.66q25.9,0,46.13,11.56a78.9,78.9,0,0,1,31.16,32.17,95.19,95.19,0,0,1,10.93,45.29H273.1q0-27.31-13.15-42.29t-37.84-15q-22.46,0-34.8,12.57T175,177.51q0,18.65,13.35,31.22t41.28,22.5q43.5,14.39,62.22,35.43t18.71,55q0,35.81-23.27,57.36T223.93,400.6a101.88,101.88,0,0,1-47.45-11.23,84.88,84.88,0,0,1-34.19-31.56q-12.44-20.33-12.44-46.64h37.23q0,27.32,15.28,42.49t41.58,15.18q24.48,0,36.82-12.54T273.1,322.1Z"/><path class="cls-4" d="M109.43,71.76l98.24-54.88L221.79,9h-5l72.62,42.94,114.71,67.83,26.45,15.64L428,131.1l0,83.35,0,132.69v30.24l2.48-4.32-87.93,49.57-12.59,7.1c-5.61,3.16-.57,11.8,5,8.63L423,388.79l12.59-7.1a5,5,0,0,0,2.48-4.32l0-123.14,0-84.28V142c0-3.55.42-7.38,0-10.91-.53-4.47-6.19-6.52-9.66-8.57L406.1,109.36,334.27,66.88,260.33,23.16l-26-15.35c-4-2.37-8-5.22-12.21-7.22-4.67-2.21-10,2.37-14.06,4.61L176,23.12,108.75,60.69l-4.36,2.44c-5.62,3.14-.58,11.78,5,8.63Z"/><path class="cls-5" d="M328.8,430.89l-98.24,54.88-14.11,7.88h5l-72.62-42.94L34.16,382.89,7.71,367.25l2.48,4.32,0-83.35,0-132.69V125.28L7.66,129.6,95.59,80l12.59-7.1c5.61-3.16.57-11.8-5-8.63L15.2,113.87,2.61,121a5,5,0,0,0-2.48,4.32l0,123.14,0,84.28v27.94c0,3.55-.42,7.38,0,10.91.53,4.47,6.19,6.52,9.66,8.57L32.13,393.3,104,435.78l73.94,43.72,26,15.35c4,2.37,8,5.22,12.21,7.22,4.67,2.21,10-2.37,14.06-4.61l32.07-17.92L329.48,442l4.36-2.44c5.62-3.14.58-11.78-5-8.63Z"/><circle class="cls-6" cx="332.59" cy="435.21" r="27.62" transform="translate(-4.52 3.49) rotate(-0.6)"/><circle class="cls-7" cx="106.92" cy="68.61" r="27.62" transform="matrix(1, -0.01, 0.01, 1, -0.71, 1.12)"/></svg>