<svg id="Layer_1" data-name="Layer 1" xmlns="http://www.w3.org/2000/svg" viewBox="0 0 82.26 46.52"><defs><style>.cls-1{fill:#232222;}.cls-2{fill:#309fa9;}.cls-3{fill:#31bebf;}.cls-4{fill:#214684;}.cls-5{fill:#4cbfa6;}.cls-6{fill:#3199a8;}.cls-7{fill:#2db6ba;}.cls-8{fill:#46c1c3;}.cls-9{fill:#42beae;}.cls-10{fill:#1f8ca4;}.cls-11{fill:#43bfb6;}.cls-12{fill:#307094;}.cls-13{fill:#54c1b1;}.cls-14{fill:#57c2b1;}.cls-15{fill:#2c7598;}.cls-16{fill:#41bda8;}.cls-17{fill:#2f6d8e;}.cls-18{fill:#4cbfa7;}.cls-19{fill:#2cbbbe;}.cls-20{fill:#2dbdbd;}.cls-21{fill:#4cc0ad;}.cls-22{fill:#38a3ad;}.cls-23{fill:#224785;}</style></defs><title>BetaCollective</title><path class="cls-1" d="M41.15,27.82v-19h4.29a5.46,5.46,0,0,1,3.06.9,4.16,4.16,0,0,1,1.67,2.35,6.6,6.6,0,0,1,.27,2,4.47,4.47,0,0,1-1,3.06,2.86,2.86,0,0,1-1,.74A3.33,3.33,0,0,1,50,19.31a5.66,5.66,0,0,1,.65,1.88,7.63,7.63,0,0,1,.11,1.32,6.31,6.31,0,0,1-.68,3.06,4.06,4.06,0,0,1-1.5,1.58,4.13,4.13,0,0,1-2.17.67Zm3.09-11.25h1.2a1.76,1.76,0,0,0,1.79-1.3,3.74,3.74,0,0,0,.17-1.2,2.5,2.5,0,0,0-.58-1.79,1.8,1.8,0,0,0-1.38-.56h-1.2Zm0,8.42h1.2a2,2,0,0,0,2-1.5,3.26,3.26,0,0,0,.2-1.18A3.6,3.6,0,0,0,47,20a2,2,0,0,0-1.61-.67h-1.2Z"/><path class="cls-1" d="M53.28,27.82v-19h8.16v2.88H56.14v5.19H60v2.88H56.14v5.19h5.29v2.88Z"/><path class="cls-1" d="M66.45,11.7h-3V8.82h8.95V11.7h-3V27.82H66.45Z"/><path class="cls-1" d="M75.73,23.45,75,27.82H72l3.23-19h3.94l3.18,19h-3l-.68-4.37Zm1.5-10.28-1.06,7.49h2.12Z"/><path class="cls-1" d="M43.23,38a1.77,1.77,0,0,1-1.3-.53,1.75,1.75,0,0,1-.53-1.29V32a1.83,1.83,0,0,1,3.12-1.29A1.78,1.78,0,0,1,45,32v.87H43.85V32a.67.67,0,0,0-.67-.67.63.63,0,0,0-.46.2.65.65,0,0,0-.19.47V36.2a.66.66,0,0,0,.66.66.64.64,0,0,0,.47-.19.62.62,0,0,0,.2-.46V35.15H45v1.06a1.75,1.75,0,0,1-.54,1.29A1.78,1.78,0,0,1,43.23,38Z"/><path class="cls-1" d="M47.8,30.2A1.82,1.82,0,0,1,49.63,32V36.2A1.82,1.82,0,0,1,47.8,38a1.74,1.74,0,0,1-1.29-.54A1.76,1.76,0,0,1,46,36.2V32A1.83,1.83,0,0,1,47.8,30.2Zm.63,1.8a.64.64,0,0,0-.19-.47.66.66,0,0,0-.94,0,.62.62,0,0,0-.2.47v4.18a.63.63,0,0,0,.2.47.66.66,0,0,0,1.13-.47Z"/><path class="cls-1" d="M53.79,37.94H50.65V30.3H51.8v6.49h2Z"/><path class="cls-1" d="M57.72,37.94H54.58V30.3h1.16v6.49h2Z"/><path class="cls-1" d="M58.51,37.94V30.29h3.28v1.16H59.67v2.08h1.55V34.7H59.67v2.08h2.12v1.16Z"/><path class="cls-1" d="M64.41,38a1.82,1.82,0,0,1-1.83-1.82V32a1.83,1.83,0,0,1,3.12-1.29A1.77,1.77,0,0,1,66.24,32v.87H65V32a.67.67,0,0,0-.67-.67.66.66,0,0,0-.66.67V36.2a.62.62,0,0,0,.19.46A.66.66,0,0,0,65,36.2V35.15h1.19v1.06a1.76,1.76,0,0,1-.54,1.29A1.78,1.78,0,0,1,64.41,38Z"/><path class="cls-1" d="M68.26,31.46H67V30.3h3.6v1.16H69.41v6.48H68.26Z"/><path class="cls-1" d="M72.71,37.94H71.55V30.3h1.15Z"/><path class="cls-1" d="M75,37.94,73.67,30.3h1.21l1,6,1-6H78l-1.39,7.64Z"/><path class="cls-1" d="M79,37.94V30.29h3.28v1.16H80.13v2.08h1.55V34.7H80.13v2.08h2.13v1.16Z"/><polygon class="cls-2" points="4.03 30.24 8.06 32.56 4.03 34.89 0 37.21 0 32.56 0 27.91 4.03 30.24"/><polygon class="cls-3" points="4.03 30.24 0 27.91 4.03 25.58 8.06 23.26 8.06 27.91 8.06 32.56 4.03 30.24"/><polygon class="cls-4" points="4.02 39.54 0 37.21 4.03 34.89 8.06 32.56 8.05 37.22 8.05 41.87 4.02 39.54"/><polygon class="cls-5" points="12.09 34.89 16.11 37.22 12.08 39.55 8.05 41.87 8.06 37.22 8.06 32.56 12.09 34.89"/><polygon class="cls-6" points="12.08 44.2 8.05 41.87 12.08 39.54 16.11 37.22 16.11 41.87 16.11 46.52 12.08 44.2"/><polygon class="cls-7" points="20.14 39.55 24.17 41.87 20.14 44.2 16.11 46.52 16.11 41.87 16.11 37.22 20.14 39.55"/><polygon class="cls-8" points="28.2 34.9 32.23 37.22 28.2 39.55 24.17 41.87 24.17 37.22 24.17 32.57 28.2 34.9"/><polygon class="cls-9" points="28.2 25.59 32.23 27.92 28.2 30.24 24.17 32.57 24.18 27.92 24.18 23.26 28.2 25.59"/><polygon class="cls-10" points="28.21 16.29 32.23 18.61 28.2 20.94 24.18 23.26 24.18 18.61 24.18 13.96 28.21 16.29"/><polygon class="cls-11" points="20.14 20.94 24.18 23.26 20.14 25.59 16.11 27.91 16.12 23.26 16.12 18.61 20.14 20.94"/><polygon class="cls-12" points="20.14 39.55 16.11 37.22 20.14 34.89 24.17 32.57 24.17 37.22 24.17 41.87 20.14 39.55"/><polygon class="cls-13" points="28.2 34.9 24.17 32.57 28.2 30.24 32.23 27.92 32.23 32.57 32.23 37.22 28.2 34.9"/><polygon class="cls-14" points="28.2 16.29 24.18 13.96 28.21 11.64 32.24 9.31 32.23 13.96 32.23 18.61 28.2 16.29"/><polygon class="cls-15" points="4.03 20.93 8.06 23.26 4.03 25.58 0 27.91 0 23.26 0 18.61 4.03 20.93"/><polygon class="cls-16" points="4.03 20.93 0 18.61 4.03 16.28 8.06 13.96 8.06 18.61 8.06 23.26 4.03 20.93"/><polygon class="cls-14" points="4.03 11.63 8.06 13.96 4.03 16.28 0 18.61 0.01 13.95 0.01 9.3 4.03 11.63"/><polygon class="cls-17" points="12.09 6.98 16.12 9.31 12.09 11.63 8.06 13.96 8.06 9.3 8.06 4.65 12.09 6.98"/><polygon class="cls-18" points="20.15 2.33 24.18 4.66 20.15 6.98 16.12 9.3 16.12 4.65 16.12 0 20.15 2.33"/><polygon class="cls-19" points="28.21 6.98 32.24 9.31 28.21 11.64 24.18 13.96 24.18 9.31 24.18 4.66 28.21 6.98"/><polygon class="cls-20" points="4.03 11.63 0.01 9.3 4.03 6.98 8.06 4.65 8.06 9.3 8.06 13.96 4.03 11.63"/><polygon class="cls-21" points="12.09 6.98 8.06 4.65 12.09 2.33 16.12 0 16.12 4.65 16.12 9.3 12.09 6.98"/><polygon class="cls-22" points="20.15 11.63 16.12 9.31 20.15 6.98 24.18 4.66 24.18 9.31 24.18 13.96 20.15 11.63"/><polygon class="cls-23" points="20.14 20.94 16.12 18.61 20.14 16.28 24.18 13.96 24.18 18.61 24.18 23.26 20.14 20.94"/><polygon class="cls-15" points="20.14 30.24 16.11 27.91 20.14 25.59 24.18 23.26 24.18 27.92 24.17 32.57 20.14 30.24"/></svg>