<svg id="Layer_1" data-name="Layer 1" xmlns="http://www.w3.org/2000/svg" viewBox="0 0 146 146"><defs><style>.cls-1{fill:#186433;}.cls-2{fill:none;stroke:#186433;stroke-miterlimit:10;stroke-width:5px;}</style></defs><title>Icon - Green partner</title><path id="_Compound_Path_" data-name="&lt;Compound Path&gt;" class="cls-1" d="M61.52,83.25A24.52,24.52,0,1,0,37,58.73,24.55,24.55,0,0,0,61.52,83.25Zm0-39.75A15.24,15.24,0,1,1,46.27,58.73,15.26,15.26,0,0,1,61.52,43.49Zm11.16,42a4.65,4.65,0,0,0-3.81.46l-7.36,4.46L54.17,86a4.64,4.64,0,0,0-3.81-.46c-7,2.23-29.92,10.46-29.92,22.92a4.64,4.64,0,0,0,4.64,4.64H98a4.64,4.64,0,0,0,4.64-4.64C102.61,96,79.7,87.76,72.69,85.54Zm-39.2,18.28c3.94-3,10.53-6.3,17.7-8.78l7.93,4.81a4.64,4.64,0,0,0,4.81,0L71.86,95c7.17,2.48,13.76,5.82,17.7,8.78ZM126,100.39a3.44,3.44,0,0,1-3.48,3.43H107a3.48,3.48,0,1,1,0-7h10.33c-1.68-2.32-4.51-4.15-8-6.05A3.42,3.42,0,0,1,108,86.13a3.48,3.48,0,0,1,4.73-1.37C117.69,87.48,126,93.09,126,100.39ZM106.48,69.67a9.22,9.22,0,0,0-12.8-8.48A3.48,3.48,0,0,1,91,54.78a16.16,16.16,0,1,1-5.82,25.59,3.48,3.48,0,0,1,5.21-4.61,9.21,9.21,0,0,0,16.12-6.09Z"/><circle class="cls-2" cx="73" cy="73" r="70.5"/></svg>