<svg id="Layer_1" data-name="Layer 1" xmlns="http://www.w3.org/2000/svg" viewBox="0 0 94 87.87"><defs><style>.cls-1{fill:#4c4b4d;}</style></defs><title>Icon Speaker</title><path id="_Compound_Path_" data-name="&lt;Compound Path&gt;" class="cls-1" d="M93.53,32A10.89,10.89,0,0,0,88,25.08c-3.49-1.81-7.59-1.6-10.42-1.1l-6-21a4.09,4.09,0,0,0-7-1.61C50,17.67,44,21.64,27.9,28.73L15.24,32.38A21.23,21.23,0,0,0,.82,58.58,20.9,20.9,0,0,0,26,73.33l1.37,4.8a14.63,14.63,0,0,0,4,6.61l2.13,2a4.09,4.09,0,0,0,5.62-5.93L37,78.8a6.46,6.46,0,0,1-1.77-2.92l-1.37-4.79,5.89-1.7C56.7,66.86,64.34,67,85.08,73a4.09,4.09,0,0,0,5.05-5.05l-6-21c2.69-1,6.28-2.9,8.3-6.21A10.71,10.71,0,0,0,93.53,32ZM14.87,64.15a12.9,12.9,0,0,1-6.19-7.81,13,13,0,0,1,8.83-16.11l9.2-2.65,4.23,14.83,2.9,10.18-9.23,2.66A12.69,12.69,0,0,1,14.87,64.15Zm41.62-4.49a107,107,0,0,0-14.66,1.17l-6-20.92L34.4,34.78c13-5.93,20-10.51,31.36-22.55l14.53,51C70.59,60.7,63.62,59.66,56.49,59.66Zm29-23.22A7.9,7.9,0,0,1,81.9,39l-2-7.11a8.13,8.13,0,0,1,4.4.42,2.69,2.69,0,0,1,1.4,1.88A2.54,2.54,0,0,1,85.49,36.45ZM59.62,29.68a3.58,3.58,0,0,1-.8,5,75.46,75.46,0,0,1-8.23,5.06,3.58,3.58,0,0,1-3.31-6.34,69.25,69.25,0,0,0,7.34-4.51A3.58,3.58,0,0,1,59.62,29.68Z"/></svg>