<svg id="Layer_1" data-name="Layer 1" xmlns="http://www.w3.org/2000/svg" viewBox="0 0 146 146"><defs><style>.cls-1{fill:#7fb059;}.cls-2{fill:none;stroke:#7fb059;stroke-miterlimit:10;stroke-width:5px;}</style></defs><title>Icon - Green Heart</title><path id="_Compound_Path_" data-name="&lt;Compound Path&gt;" class="cls-1" d="M112.34,51.14c-3.91-8.73-12.17-14.36-21-14.36s-14.62,3.9-18,8.13c-3.39-4.23-9.14-8.13-18-8.13s-17.13,5.64-21,14.36c-4.07,9.09-2.31,19.21,4.7,27.07,16.8,18.85,31.65,32.21,31.79,32.34a3.83,3.83,0,0,0,5.12,0c.15-.13,15-13.49,31.79-32.34C114.66,70.35,116.41,60.23,112.34,51.14Zm-10.42,22C89.5,87,78.18,97.91,73.29,102.49c-4.89-4.57-16.2-15.43-28.63-29.38-5-5.63-6.27-12.49-3.43-18.83,2.64-5.88,8.28-9.83,14-9.83,11.44,0,14,8.55,14.29,9.56a3.82,3.82,0,0,0,3.69,2.9h0A3.87,3.87,0,0,0,77,54c.26-1,2.83-9.55,14.29-9.55,5.77,0,11.41,3.95,14,9.83C108.19,60.62,106.94,67.48,101.92,73.11ZM101,62a3.35,3.35,0,0,1-3.13,3.57h-.22a3.35,3.35,0,0,1-3.34-3.13C93.93,57,90.38,56.13,89.67,56a3.33,3.33,0,0,1-2.84-3.77,3.38,3.38,0,0,1,3.81-2.86C94,49.82,100.39,53,101,62Zm-4.63,5.57a3.83,3.83,0,0,1-2.71,6.55,3.84,3.84,0,0,1-3.83-3.83,3.84,3.84,0,0,1,6.55-2.71Z"/><circle class="cls-2" cx="73.5" cy="73.5" r="70.5"/></svg>