<svg id="Layer_1" data-name="Layer 1" xmlns="http://www.w3.org/2000/svg" viewBox="0 0 146 146"><defs><style>.cls-1{fill:#62aadd;}.cls-2{fill:none;stroke:#62aadd;stroke-miterlimit:10;stroke-width:5px;}</style></defs><title>Icon - Blue Cup</title><path id="_Compound_Path_" data-name="&lt;Compound Path&gt;" class="cls-1" d="M80.42,58.11V50.34a3.05,3.05,0,0,1,6.11,0v7.77a3.05,3.05,0,1,1-6.11,0ZM83.33,70a3.49,3.49,0,0,0,2.46-6,3.49,3.49,0,0,0-6,2.47A3.49,3.49,0,0,0,83.33,70Zm23.06-3.29a16.54,16.54,0,0,1-9.69,4.94C94.78,83.31,86.53,89.31,76.93,90.49v12.84h7.49a3.49,3.49,0,0,1,0,7H62.49a3.49,3.49,0,0,1,0-7h7.46V90.49c-9.6-1.19-17.83-7.19-19.75-18.85a16.49,16.49,0,0,1-9.72-4.93c-7.13-7.38-6.77-20.07-6.75-20.61a3.1,3.1,0,0,1,3.05-3H49.87V40.49A3.44,3.44,0,0,1,53.3,37H93.61A3.4,3.4,0,0,1,97,40.49v2.62h13.09a3.1,3.1,0,0,1,3.05,3C113.16,46.64,113.52,59.33,106.39,66.71ZM44.93,62.46a11.35,11.35,0,0,0,4.95,2.91V49.22H40C40.27,52.71,41.36,58.77,44.93,62.46ZM90,44H56.86V66.62c0,12.62,8.52,17.11,16.58,17.11S90,79.24,90,66.62Zm11.93,18.46c3.37-3.5,4.64-8.86,5-13.22H97V65.35A11.37,11.37,0,0,0,101.95,62.44Z"/><circle class="cls-2" cx="73" cy="73" r="70.5"/></svg>