<svg id="Layer_1" data-name="Layer 1" xmlns="http://www.w3.org/2000/svg" viewBox="0 0 128.98 68.36"><defs><style>.cls-1,.cls-6{fill:#43c7f1;}.cls-1{stroke:#43c7f1;stroke-miterlimit:10;stroke-width:0.5px;}.cls-2{fill:#7e5c24;}.cls-3{fill:#fbe3cd;}.cls-4{fill:#e2e2e2;}.cls-5{fill:#9dcb3b;}.cls-7{fill:#f0492b;}.cls-8{fill:#8c8c8c;opacity:0.4;}</style></defs><title>Typow Pencil</title><polygon class="cls-1" points="128.49 38.74 96.67 57.51 96.67 51.93 120.45 38.74 96.67 25.6 96.67 19.98 128.49 38.74"/><rect class="cls-1" x="22.54" y="32.12" width="64.66" height="4.12" transform="translate(3.05 72.83) rotate(-68.64)"/><polygon class="cls-2" points="77.11 68.36 79.15 64.88 74.94 64.82 77.11 68.36"/><path class="cls-3" d="M81.41,61.18a2.84,2.84,0,0,1-1.64-1.54S77.3,64,74.25,59.55c0,0-.5,1.34-1.5,1.58l2.19,3.69,4.21.06Z"/><path class="cls-4" d="M82.54,32.9s-.45.8-3,.91c0,0-2.28.39-5.39-1.64a4.39,4.39,0,0,0-3,.23l-.07-10.67,11.4-.08Z"/><path class="cls-5" d="M82.72,59.07,82.54,32.9s-.71.85-3,.91l.23,25.82s.16,1,1.64,1.54Z"/><path class="cls-6" d="M74.25,59.55s2.64,4.5,5.52.08l-.23-25.82s-2.26.42-5.39-1.64Z"/><path class="cls-7" d="M71.27,58.93l1.47,2.2s.94-.13,1.5-1.58l-.1-27.38a4,4,0,0,0-3,.23Z"/><path class="cls-2" d="M82.54,32.9s-.74-3.52-8.19-.6C74.35,32.3,79.45,35.81,82.54,32.9Z"/><polygon class="cls-8" points="71.09 21.73 71.11 20.24 82.5 20.34 82.49 21.65 71.09 21.73"/><rect class="cls-4" x="69.62" y="17.86" width="14.41" height="2.43" rx="0.89" ry="0.89" transform="translate(0.17 -0.66) rotate(0.49)"/><circle class="cls-6" cx="74.75" cy="13.06" r="1.41" transform="translate(60.59 87.61) rotate(-89.16)"/><circle class="cls-6" cx="79.33" cy="7.56" r="1.1" transform="translate(70.6 86.78) rotate(-89.16)"/><circle class="cls-6" cx="76.71" cy="0.91" r="0.91" transform="translate(74.67 77.6) rotate(-89.16)"/><polygon class="cls-1" points="0.49 38.74 32.32 19.98 32.32 25.55 8.53 38.74 32.32 51.88 32.32 57.51 0.49 38.74"/></svg>